<svg t="1677082194976" class="icon" viewBox="0 0 1024 1024" version="1.1" xmlns="http://www.w3.org/2000/svg" p-id="6231" width="128" height="128"><path d="M401.0496 377.344H229.1712a26.0096 26.0096 0 0 0 0 52.0704h171.8784a26.0096 26.0096 0 0 0 0-52.0704z m0 156.928H229.1712a26.0096 26.0096 0 0 0 0 52.0704h171.8784a26.0096 26.0096 0 0 0 0-52.0704z m369.7664-156.928h-171.8784a26.0096 26.0096 0 0 0 0 52.0704h171.8272a26.0096 26.0096 0 0 0 0-52.0704zM812.1344 153.6c44.2368 0 80.2304 35.9936 80.2304 80.2304v513.6384c0 44.2368-35.9936 80.2304-80.2304 80.2304H649.728a26.2144 26.2144 0 0 1-3.072-0.1536c-112.64 6.5024-125.3376 28.5696-125.44 28.8256a26.0096 26.0096 0 0 1-23.1424 14.0288h-1.3824a26.0096 26.0096 0 0 1-23.0912-14.0288c-0.1024-0.256-12.8512-22.3232-125.44-28.8256a26.2144 26.2144 0 0 1-3.1232 0.1536H182.6304A80.3328 80.3328 0 0 1 102.4 747.52V233.8304C102.4 189.5936 138.3936 153.6 182.6304 153.6h162.4064c73.5744 0 126.1056 26.7264 152.3712 43.9808C523.6736 180.3264 576.2048 153.6 649.728 153.6h162.4064z m-41.3184 380.672a26.0096 26.0096 0 0 1 0 52.0704h-171.8784a26.0096 26.0096 0 0 1 0-52.0704h171.8784z m69.5296 213.1968V233.8304a28.2112 28.2112 0 0 0-28.16-28.16H649.728c-35.6864 0-69.376 7.424-100.1984 22.1696a197.8368 197.8368 0 0 0-24.6784 13.9776l-1.4336 405.0944 0.512 148.48c7.7824-2.8672 16.4352-5.4272 25.9584-7.68 26.7264-6.3488 61.1328-10.5984 102.4-12.5952 65.536-3.2256 126.6176 0.0512 134.7072 0.512h25.1392c15.5648 0 28.16-12.5952 28.16-28.16z" fill="#176EAD" p-id="6232"></path></svg>